<mxfile host="app.diagrams.net" modified="2023-04-19T12:14:41.269Z" agent="Mozilla/5.0 (X11; Linux x86_64) AppleWebKit/537.36 (KHTML, like Gecko) Chrome/108.0.0.0 Safari/537.36 OPR/94.0.0.0" etag="wPE-Y0X06nzSgehkvdHI" version="21.1.2" type="device">
  <diagram name="Page-1" id="cQqzRaZ9DAj6FBAkepsM">
    <mxGraphModel dx="330" dy="192" grid="1" gridSize="10" guides="1" tooltips="1" connect="1" arrows="1" fold="1" page="1" pageScale="1" pageWidth="850" pageHeight="1100" math="0" shadow="0">
      <root>
        <mxCell id="0" />
        <mxCell id="1" parent="0" />
        <mxCell id="YoRJc4HW0iqzPcsMXknM-4" value="" style="rounded=0;whiteSpace=wrap;html=1;rotation=60;fillColor=#FF0000;" vertex="1" parent="1">
          <mxGeometry x="390" y="419" width="120" height="8" as="geometry" />
        </mxCell>
        <mxCell id="YoRJc4HW0iqzPcsMXknM-5" value="" style="rounded=0;whiteSpace=wrap;html=1;rotation=120;fillColor=#0000FF;" vertex="1" parent="1">
          <mxGeometry x="329" y="420" width="120" height="8" as="geometry" />
        </mxCell>
        <mxCell id="YoRJc4HW0iqzPcsMXknM-7" value="" style="html=1;shadow=0;dashed=0;align=center;verticalAlign=middle;shape=mxgraph.arrows2.sharpArrow;dy1=0.81;dx1=12.71;dx2=18;notch=0;fillColor=#00FF00;" vertex="1" parent="1">
          <mxGeometry x="418" y="353" width="110" height="34" as="geometry" />
        </mxCell>
        <mxCell id="YoRJc4HW0iqzPcsMXknM-2" value="" style="ellipse;whiteSpace=wrap;html=1;aspect=fixed;fillColor=#404040;" vertex="1" parent="1">
          <mxGeometry x="469" y="465" width="25" height="25" as="geometry" />
        </mxCell>
        <mxCell id="YoRJc4HW0iqzPcsMXknM-3" value="" style="ellipse;whiteSpace=wrap;html=1;aspect=fixed;fillColor=#808080;" vertex="1" parent="1">
          <mxGeometry x="407.5" y="357" width="25" height="25" as="geometry" />
        </mxCell>
        <mxCell id="YoRJc4HW0iqzPcsMXknM-8" value="" style="ellipse;whiteSpace=wrap;html=1;aspect=fixed;fillColor=#404040;" vertex="1" parent="1">
          <mxGeometry x="347" y="465" width="25" height="25" as="geometry" />
        </mxCell>
      </root>
    </mxGraphModel>
  </diagram>
</mxfile>
